<?xml version="1.0" encoding="utf-8"?>
<!-- Generator: Adobe Illustrator 26.3.0, SVG Export Plug-In . SVG Version: 6.00 Build 0)  -->
<svg version="1.1" id="Capa_1" xmlns="http://www.w3.org/2000/svg" xmlns:xlink="http://www.w3.org/1999/xlink" x="0px" y="0px"
	 viewBox="0 0 800 400" style="enable-background:new 0 0 800 400;" xml:space="preserve">
<style type="text/css">
	.st0{fill:#FF5A00;}
</style>
<g id="V1">
	<polygon class="st0" points="202.59,84.28 102.31,141.76 102.31,257.02 134.11,275.69 134.11,161.63 202.29,122.19 270.16,161.02 
		270.16,238.98 202.29,277.81 190.67,271.39 190.67,193.12 234.39,168.66 202.29,149.71 158.57,174.47 158.57,290.05 202.29,315.72 
		302.26,257.02 302.26,142.37 	"/>
	<g>
		<g>
			<path d="M321.27,190.29c0-14.91,11.38-25.78,26.71-25.78c7.78,0,14.55,2.66,19.15,7.85l-4.68,4.54
				c-3.89-4.1-8.64-5.98-14.19-5.98c-11.38,0-19.8,8.21-19.8,19.37s8.42,19.37,19.8,19.37c5.54,0,10.3-1.94,14.19-6.05l4.68,4.54
				c-4.61,5.18-11.38,7.92-19.23,7.92C332.65,216.07,321.27,205.19,321.27,190.29z"/>
			<path d="M408.32,202.89h-26.79l-5.54,12.6h-7.42l22.83-50.4h7.13l22.9,50.4h-7.56L408.32,202.89z M405.8,197.13l-10.87-24.7
				l-10.87,24.7H405.8z"/>
			<path d="M472.26,165.09v50.4h-5.9l-30.24-37.59v37.59h-7.2v-50.4h5.9l30.24,37.59v-37.59H472.26z"/>
			<path d="M483.27,190.29c0-14.76,11.38-25.78,26.86-25.78c15.34,0,26.71,10.95,26.71,25.78s-11.38,25.78-26.71,25.78
				C494.64,216.07,483.27,205.05,483.27,190.29z M529.64,190.29c0-11.16-8.35-19.37-19.51-19.37c-11.3,0-19.66,8.21-19.66,19.37
				s8.35,19.37,19.66,19.37C521.29,209.66,529.64,201.45,529.64,190.29z"/>
			<path class="st0" d="M589.98,183.38c0,11.23-8.42,18.22-21.89,18.22h-10.15v13.9h-11.67v-50.4h21.82
				C581.55,165.09,589.98,172.07,589.98,183.38z M578.17,183.38c0-5.54-3.6-8.78-10.73-8.78h-9.5v17.5h9.5
				C574.57,192.09,578.17,188.85,578.17,183.38z"/>
			<path class="st0" d="M595.8,190.29c0-14.98,11.67-26.07,27.58-26.07c15.84,0,27.58,11.02,27.58,26.07
				c0,15.05-11.74,26.07-27.58,26.07C607.47,216.36,595.8,205.27,595.8,190.29z M639.15,190.29c0-9.58-6.77-16.13-15.77-16.13
				s-15.77,6.55-15.77,16.13s6.77,16.13,15.77,16.13S639.15,199.87,639.15,190.29z"/>
			<path class="st0" d="M655.78,210.52l3.96-8.78c4.25,3.1,10.58,5.26,16.63,5.26c6.91,0,9.72-2.3,9.72-5.4
				c0-9.43-29.31-2.95-29.31-21.67c0-8.57,6.91-15.7,21.24-15.7c6.34,0,12.82,1.51,17.5,4.46l-3.6,8.86
				c-4.68-2.66-9.5-3.96-13.97-3.96c-6.91,0-9.58,2.59-9.58,5.76c0,9.29,29.31,2.88,29.31,21.39c0,8.42-6.98,15.63-21.39,15.63
				C668.31,216.36,660.24,213.98,655.78,210.52z"/>
		</g>
		<g>
			<path class="st0" d="M386.41,241.6c0,3.59-2.69,5.82-6.99,5.82h-3.24v4.44h-3.73v-16.1h6.97
				C383.72,235.76,386.41,237.99,386.41,241.6z M382.63,241.6c0-1.77-1.15-2.81-3.43-2.81h-3.04v5.59h3.04
				C381.48,244.38,382.63,243.35,382.63,241.6z"/>
			<path class="st0" d="M393.45,244.77v-9.01h3.73v8.88c0,3.06,1.33,4.32,3.59,4.32c2.28,0,3.59-1.26,3.59-4.32v-8.88h3.68v9.01
				c0,4.74-2.71,7.36-7.29,7.36S393.45,249.51,393.45,244.77z"/>
			<path class="st0" d="M431.07,235.76v16.1h-3.06l-8.02-9.77v9.77h-3.68v-16.1h3.08l8,9.77v-9.77H431.07z"/>
			<path class="st0" d="M442.83,238.79h-5.15v-3.04h14.03v3.04h-5.15v13.06h-3.73V238.79z"/>
			<path class="st0" d="M457.06,243.81c0-4.78,3.73-8.32,8.81-8.32c5.06,0,8.81,3.52,8.81,8.32c0,4.81-3.75,8.32-8.81,8.32
				C460.79,252.13,457.06,248.59,457.06,243.81z M470.91,243.81c0-3.06-2.16-5.15-5.04-5.15c-2.87,0-5.04,2.09-5.04,5.15
				c0,3.06,2.16,5.15,5.04,5.15C468.75,248.96,470.91,246.87,470.91,243.81z"/>
			<path class="st0" d="M493.2,235.76h7.31c5.27,0,8.88,3.17,8.88,8.05s-3.61,8.05-8.88,8.05h-7.31V235.76z M500.33,248.8
				c3.2,0,5.29-1.91,5.29-4.99c0-3.08-2.09-4.99-5.29-4.99h-3.4v9.98H500.33z"/>
			<path class="st0" d="M529.26,248.87v2.99h-12.46v-16.1h12.17v2.99h-8.46v3.5h7.47v2.9h-7.47v3.73H529.26z"/>
			<path class="st0" d="M563.41,235.76l-6.97,16.1h-3.68l-6.94-16.1h4.02l4.9,11.5l4.97-11.5H563.41z"/>
			<path class="st0" d="M581.81,248.87v2.99h-12.46v-16.1h12.17v2.99h-8.46v3.5h7.47v2.9h-7.47v3.73H581.81z"/>
			<path class="st0" d="M604.14,235.76v16.1h-3.06l-8.03-9.77v9.77h-3.68v-16.1h3.08l8,9.77v-9.77H604.14z"/>
			<path class="st0" d="M615.9,238.79h-5.15v-3.04h14.03v3.04h-5.15v13.06h-3.72V238.79z"/>
			<path class="st0" d="M641.18,248.41h-7.47l-1.43,3.45h-3.82l7.17-16.1h3.68l7.2,16.1h-3.91L641.18,248.41z M640,245.58
				l-2.55-6.16l-2.55,6.16H640z"/>
		</g>
	</g>
</g>
</svg>
