<?xml version="1.0" encoding="utf-8"?>
<!-- Generator: Adobe Illustrator 26.3.0, SVG Export Plug-In . SVG Version: 6.00 Build 0)  -->
<svg version="1.1" id="Capa_1" xmlns="http://www.w3.org/2000/svg" xmlns:xlink="http://www.w3.org/1999/xlink" x="0px" y="0px"
	 viewBox="0 0 1000 1000" style="enable-background:new 0 0 1000 1000;" xml:space="preserve">
<style type="text/css">
	.st0{fill:#FF5A00;}
</style>
<g id="V2">
	<polygon class="st0" points="500.27,193.85 321.05,296.57 321.05,502.56 377.88,535.93 377.88,332.09 499.73,261.6 621.03,330.99 
		621.03,470.32 499.73,539.72 478.96,528.24 478.96,388.36 557.1,344.65 499.73,310.78 421.59,355.03 421.59,561.59 499.73,607.47 
		678.4,502.56 678.4,297.66 	"/>
	<g>
		<g>
			<path d="M163.36,695.31c0-26.64,20.33-46.07,47.74-46.07c13.9,0,26,4.76,34.23,14.03l-8.36,8.11
				c-6.95-7.33-15.44-10.68-25.35-10.68c-20.33,0-35.39,14.67-35.39,34.62s15.06,34.62,35.39,34.62c9.91,0,18.4-3.47,25.35-10.81
				l8.36,8.11c-8.24,9.27-20.33,14.16-34.36,14.16C183.7,741.38,163.36,721.95,163.36,695.31z"/>
			<path d="M318.94,717.83h-47.87l-9.91,22.52H247.9l40.79-90.08h12.74l40.92,90.08h-13.51L318.94,717.83z M314.44,707.54
				L295,663.39l-19.43,44.14H314.44z"/>
			<path d="M433.21,650.27v90.08h-10.55l-54.05-67.17v67.17h-12.87v-90.08h10.55l54.05,67.17v-67.17H433.21z"/>
			<path d="M452.89,695.31c0-26.38,20.33-46.07,48-46.07c27.41,0,47.74,19.56,47.74,46.07s-20.33,46.07-47.74,46.07
				C473.22,741.38,452.89,721.69,452.89,695.31z M535.76,695.31c0-19.95-14.93-34.62-34.87-34.62c-20.2,0-35.13,14.67-35.13,34.62
				s14.93,34.62,35.13,34.62C520.83,729.93,535.76,715.26,535.76,695.31z"/>
			<path class="st0" d="M643.59,682.95c0,20.08-15.06,32.56-39.12,32.56h-18.14v24.84h-20.85v-90.08h38.99
				C628.54,650.27,643.59,662.75,643.59,682.95z M622.49,682.95c0-9.91-6.43-15.7-19.17-15.7h-16.99v31.27h16.99
				C616.05,698.53,622.49,692.74,622.49,682.95z"/>
			<path class="st0" d="M654.01,695.31c0-26.77,20.85-46.59,49.29-46.59c28.31,0,49.29,19.69,49.29,46.59
				c0,26.89-20.98,46.59-49.29,46.59C674.86,741.89,654.01,722.08,654.01,695.31z M731.48,695.31c0-17.12-12.1-28.83-28.18-28.83
				c-16.09,0-28.18,11.71-28.18,28.83s12.1,28.83,28.18,28.83C719.38,724.13,731.48,712.43,731.48,695.31z"/>
			<path class="st0" d="M761.2,731.47l7.08-15.7c7.59,5.53,18.92,9.39,29.73,9.39c12.35,0,17.37-4.12,17.37-9.65
				c0-16.86-52.38-5.28-52.38-38.74c0-15.31,12.35-28.05,37.96-28.05c11.33,0,22.91,2.7,31.27,7.98l-6.43,15.83
				c-8.37-4.76-16.99-7.08-24.96-7.08c-12.35,0-17.12,4.63-17.12,10.29c0,16.6,52.38,5.15,52.38,38.22
				c0,15.06-12.48,27.93-38.22,27.93C783.59,741.89,769.17,737.65,761.2,731.47z"/>
		</g>
		<g>
			<path class="st0" d="M279.77,787.01c0,6.41-4.81,10.4-12.49,10.4h-5.79v7.93h-6.66v-28.77h12.45
				C274.97,776.57,279.77,780.56,279.77,787.01z M273.03,787.01c0-3.16-2.05-5.01-6.12-5.01h-5.42v9.99h5.42
				C270.98,791.98,273.03,790.14,273.03,787.01z"/>
			<path class="st0" d="M292.36,792.68v-16.11h6.66v15.86c0,5.47,2.38,7.73,6.41,7.73c4.07,0,6.41-2.26,6.41-7.73v-15.86h6.58v16.11
				c0,8.46-4.85,13.15-13.03,13.15S292.36,801.15,292.36,792.68z"/>
			<path class="st0" d="M359.6,776.57v28.77h-5.47l-14.34-17.47v17.47h-6.58v-28.77h5.51l14.3,17.47v-17.47H359.6z"/>
			<path class="st0" d="M380.61,782h-9.21v-5.42h25.07V782h-9.21v23.34h-6.66V782z"/>
			<path class="st0" d="M406.06,790.96c0-8.55,6.66-14.88,15.74-14.88c9.04,0,15.74,6.29,15.74,14.88c0,8.59-6.7,14.88-15.74,14.88
				C412.71,805.84,406.06,799.51,406.06,790.96z M430.8,790.96c0-5.47-3.86-9.21-9-9.21c-5.14,0-9,3.74-9,9.21
				c0,5.46,3.86,9.2,9,9.2C426.93,800.16,430.8,796.42,430.8,790.96z"/>
			<path class="st0" d="M470.63,776.57h13.07c9.41,0,15.86,5.67,15.86,14.38s-6.45,14.38-15.86,14.38h-13.07V776.57z M483.37,799.88
				c5.71,0,9.45-3.41,9.45-8.92c0-5.51-3.74-8.92-9.45-8.92h-6.08v17.84H483.37z"/>
			<path class="st0" d="M535.08,800v5.34H512.8v-28.77h21.74v5.34h-15.12v6.25h13.36v5.18h-13.36V800H535.08z"/>
			<path class="st0" d="M596.12,776.57l-12.45,28.77h-6.58l-12.41-28.77h7.19l8.75,20.55l8.88-20.55H596.12z"/>
			<path class="st0" d="M629,800v5.34h-22.28v-28.77h21.74v5.34h-15.12v6.25h13.36v5.18h-13.36V800H629z"/>
			<path class="st0" d="M668.91,776.57v28.77h-5.46l-14.34-17.47v17.47h-6.58v-28.77h5.51l14.3,17.47v-17.47H668.91z"/>
			<path class="st0" d="M689.92,782h-9.21v-5.42h25.07V782h-9.21v23.34h-6.66V782z"/>
			<path class="st0" d="M735.09,799.18h-13.35l-2.55,6.16h-6.82l12.82-28.77h6.57l12.86,28.77h-6.99L735.09,799.18z M733,794.12
				l-4.56-11.01l-4.56,11.01H733z"/>
		</g>
	</g>
</g>
</svg>
